<svg width="20" height="20" viewBox="0 0 20 20" fill="none" xmlns="http://www.w3.org/2000/svg">
<path d="M6.13172 0L2.42003 6.66393H1.00014C0.688166 6.66393 0.395189 6.81371 0.205205 7.06709C0.0162198 7.3215 -0.0467749 7.65183 0.0352184 7.95958L2.83399 18.4879C3.06997 19.3783 3.86391 20 4.76384 20H15.236C16.1339 20 16.9279 19.3794 17.1658 18.4869L19.9646 7.95856C20.0466 7.6508 19.9846 7.32048 19.7946 7.06607C19.6036 6.81371 19.3107 6.66393 18.9987 6.66393H17.5788L13.8671 0L12.1312 1.01764L15.276 6.66393H4.72284L7.86758 1.01764L6.13172 0ZM11.9992 10.7673H13.9991V15.8966H11.9992V10.7673ZM5.99974 10.7673H7.99957V15.8966H5.99974V10.7673Z" fill="#1B1B1D"/>
</svg>
